<svg xmlns="http://www.w3.org/2000/svg" viewBox="0 0 263.24 69.78">
    <defs>
        <style>
            .a{fill:#53c4cc;}.b{fill:#231f20;}.c{fill:#32aaad;}
        </style>
    </defs>
    <title>
        Asset 3
    </title>
    <path d="M0,23.09H10.92c7.49,0,10.72,3.48,10.72,10.58v1.85c0,4.73-1.45,7.69-4.67,9v.14c3.88,1.31,5.39,4.73,5.39,9.6V58.2c0,7.11-3.75,10.92-11,10.92H0ZM10.06,41.83c2.7,0,4.34-1.19,4.34-4.87V34.4c0-3.29-1.12-4.74-3.68-4.74H7.23V41.83Zm1.32,20.71c2.43,0,3.75-1.11,3.75-4.53V54c0-4.28-1.38-5.6-4.67-5.6H7.23V62.54Z" class="a"/>
    <path d="M22.75,58.2V34c0-7.36,3.88-11.57,11-11.57s11,4.21,11,11.57V58.2c0,7.37-3.88,11.58-11,11.58S22.75,65.57,22.75,58.2Zm14.74.46V33.54C37.49,30.25,36,29,33.74,29S30,30.25,30,33.54V58.66c0,3.29,1.45,4.54,3.75,4.54S37.49,62,37.49,58.66Z" class="a"/>
    <path d="M45.05,58.2V55.57h6.84v3.16c0,3.29,1.44,4.47,3.75,4.47s3.74-1.18,3.74-4.6c0-3.82-1.44-6.25-6.18-10.39-6.05-5.33-8-9.08-8-14.34,0-7.23,3.75-11.44,10.78-11.44S66.49,26.64,66.49,34v1.91H59.65V33.54C59.65,30.25,58.33,29,56,29s-3.62,1.25-3.62,4.41c0,3.35,1.52,5.79,6.25,9.93,6,5.33,8,9,8,14.73,0,7.5-3.82,11.71-10.92,11.71S45.05,65.57,45.05,58.2Z" class="a"/>
    <path d="M71.13,29.66H63.57V23.09H85.93v6.57H78.36V69.12H71.13Z" class="a"/>
    <path d="M85.33,58.2V34c0-7.36,3.88-11.57,11-11.57s11,4.21,11,11.57V58.2c0,7.37-3.88,11.58-11,11.58S85.33,65.57,85.33,58.2Zm14.74.46V33.54c0-3.29-1.45-4.54-3.75-4.54s-3.75,1.25-3.75,4.54V58.66c0,3.29,1.44,4.54,3.75,4.54S100.07,62,100.07,58.66Z" class="a"/>
    <path d="M108.88,23.09H118l7,27.55h.13V23.09h6.45v46h-7.44l-8.68-33.6h-.13v33.6h-6.44Z" class="a"/>
    <path d="M135.67,23.09h19.14v6.57H142.9V42.49h9.34v6.57H142.9V69.12h-7.23Z" class="b"/>
    <path d="M157,23.09h7.24v46H157Z" class="b"/>
    <path d="M166.34,23.09h7.24V62.54h11.9v6.58H166.34Z" class="b"/>
    <path d="M9.71,7.84a3.73,3.73,0,0,1,1.18.36,3.59,3.59,0,0,1,1.75,1.89,3.82,3.82,0,0,1,.28,1.52,4.86,4.86,0,0,1-.35,1.84,3.72,3.72,0,0,1-1.05,1.46,5.2,5.2,0,0,1-1.78.95,8.4,8.4,0,0,1-2.54.34H1.27V.24H7.18A5.45,5.45,0,0,1,11,1.4a3.87,3.87,0,0,1,1.29,3A3.13,3.13,0,0,1,12,5.68a4,4,0,0,1-.6,1,3.44,3.44,0,0,1-.81.72A4,4,0,0,1,9.71,7.84ZM7.2,7.15a3.81,3.81,0,0,0,2.31-.69,2.45,2.45,0,0,0,.94-2.1,2.13,2.13,0,0,0-.88-1.88,4.05,4.05,0,0,0-2.39-.63H3v5.3Zm0,7.44a4.78,4.78,0,0,0,3-.78,2.62,2.62,0,0,0,1-2.2,2.37,2.37,0,0,0-1.09-2.23,5.71,5.71,0,0,0-2.91-.64H3v5.85Z" class="b"/>
    <path d="M15.05,10.47a8.25,8.25,0,0,1,.32-2.33,5.48,5.48,0,0,1,1-1.89A4.52,4.52,0,0,1,18,5a5.91,5.91,0,0,1,2.4-.45,5.84,5.84,0,0,1,2.4.45A4.65,4.65,0,0,1,24.5,6.25a5.18,5.18,0,0,1,1,1.89,7.9,7.9,0,0,1,.33,2.33,8,8,0,0,1-.33,2.34,5.14,5.14,0,0,1-1,1.9A4.43,4.43,0,0,1,22.83,16a5.84,5.84,0,0,1-2.4.45A5.91,5.91,0,0,1,18,16a4.31,4.31,0,0,1-1.68-1.25,5.44,5.44,0,0,1-1-1.9A8.32,8.32,0,0,1,15.05,10.47Zm1.75,0A7.43,7.43,0,0,0,17,12.28a4.11,4.11,0,0,0,.66,1.45,3.1,3.1,0,0,0,1.12.94,4,4,0,0,0,3.28,0,3.13,3.13,0,0,0,1.13-.94,4.28,4.28,0,0,0,.65-1.45,7,7,0,0,0,.22-1.81,6.75,6.75,0,0,0-.22-1.79,4.21,4.21,0,0,0-.65-1.42,3.16,3.16,0,0,0-1.13-1A3.58,3.58,0,0,0,20.43,6a3.61,3.61,0,0,0-1.64.34,3.13,3.13,0,0,0-1.12,1A4,4,0,0,0,17,8.68,7.2,7.2,0,0,0,16.8,10.47Z" class="b"/>
    <path d="M30.46,6.8A9.22,9.22,0,0,1,31,6a5,5,0,0,1,.73-.73,3.65,3.65,0,0,1,.9-.52,2.82,2.82,0,0,1,1.11-.21,2.64,2.64,0,0,1,1.1.18,3.53,3.53,0,0,1,.46.23l-.51,1.73a2,2,0,0,0-1.34-.43,3,3,0,0,0-1.75.54,4,4,0,0,0-1.26,1.54V16.2H28.69V4.76H30.1Z" class="b"/>
    <path d="M37.28,1.21a1.22,1.22,0,0,1,.31-.85,1.34,1.34,0,0,1,1.83,0,1.26,1.26,0,0,1,.3.85,1.24,1.24,0,0,1-.3.84,1.4,1.4,0,0,1-1.83,0A1.2,1.2,0,0,1,37.28,1.21Zm2.1,15H37.61V4.76h1.77Z" class="b"/>
    <path d="M46,15a3.25,3.25,0,0,0,2.08-.53,1.67,1.67,0,0,0,.62-1.29,1.59,1.59,0,0,0-.81-1.44,8.4,8.4,0,0,0-2-.81,10.84,10.84,0,0,1-1.4-.5,4.47,4.47,0,0,1-1.1-.69,2.79,2.79,0,0,1-.72-.95,3.17,3.17,0,0,1-.25-1.3,2.52,2.52,0,0,1,1.11-2.21,5.13,5.13,0,0,1,3-.77,9.19,9.19,0,0,1,1.92.19,6.83,6.83,0,0,1,1.6.52l-.41,1.35a6.83,6.83,0,0,0-1.38-.49A6.72,6.72,0,0,0,46.71,6a3.5,3.5,0,0,0-1.92.42,1.34,1.34,0,0,0-.62,1.14,1.4,1.4,0,0,0,.65,1.25,6.48,6.48,0,0,0,1.72.76,8.78,8.78,0,0,1,2.93,1.41,2.84,2.84,0,0,1,1,2.31,2.85,2.85,0,0,1-1.05,2.31,5.13,5.13,0,0,1-3.3.86,10.38,10.38,0,0,1-2.06-.19,5.26,5.26,0,0,1-1.6-.54l.4-1.3a8.09,8.09,0,0,0,1.46.47A7.64,7.64,0,0,0,46,15Z" class="b"/>
    <path d="M53.53.24H55.3V6.61a5.43,5.43,0,0,1,.63-.7,5.18,5.18,0,0,1,.91-.66A5.47,5.47,0,0,1,58,4.75a4.65,4.65,0,0,1,1.38-.2,4,4,0,0,1,3.38,1.72,5.56,5.56,0,0,1,.85,1.84,8.5,8.5,0,0,1,.29,2.22A9.15,9.15,0,0,1,63.54,13a5.56,5.56,0,0,1-1,1.91A4.07,4.07,0,0,1,61,16a4.93,4.93,0,0,1-1.94.37,4.27,4.27,0,0,1-3.8-2.22l-.36,2H53.53ZM55.3,10.75a4.76,4.76,0,0,0,.27,1.63,4.41,4.41,0,0,0,.76,1.3,3.33,3.33,0,0,0,1.12.86,3.11,3.11,0,0,0,1.39.31,3.26,3.26,0,0,0,1.24-.24,2.61,2.61,0,0,0,1.06-.77,4.13,4.13,0,0,0,.73-1.39,7.24,7.24,0,0,0,.27-2.12,4.87,4.87,0,0,0-.86-3.16,2.77,2.77,0,0,0-2.23-1,4,4,0,0,0-2.12.58A5.66,5.66,0,0,0,55.3,8.2Z" class="b"/>
    <path d="M68.67,16.2H66.9V.24h1.77Z" class="b"/>
    <path d="M79.16,8.67a2.56,2.56,0,0,0-.75-2.07,3,3,0,0,0-2-.63,7.23,7.23,0,0,0-2,.25,9,9,0,0,0-1.64.6l-.41-1.25a7.43,7.43,0,0,1,1.71-.7,8,8,0,0,1,2.36-.32,4.46,4.46,0,0,1,3.33,1.11,4.15,4.15,0,0,1,1.07,3V16.2H79.51l-.35-2a5.59,5.59,0,0,1-.62.85,3.69,3.69,0,0,1-.81.71,3.76,3.76,0,0,1-1.09.49,5.38,5.38,0,0,1-1.48.17,4.18,4.18,0,0,1-1.39-.22,3.56,3.56,0,0,1-1.14-.65,3,3,0,0,1-.76-1.07A3.71,3.71,0,0,1,71.59,13a3.3,3.3,0,0,1,1.34-2.87,6.35,6.35,0,0,1,3.74-1h2.49Zm0,1.82H76.64a4,4,0,0,0-2.49.65A2.25,2.25,0,0,0,73.32,13a1.88,1.88,0,0,0,.61,1.52,2.23,2.23,0,0,0,1.52.52A3.63,3.63,0,0,0,77,14.73a3.89,3.89,0,0,0,1.17-.81,3.7,3.7,0,0,0,.75-1.14,3.19,3.19,0,0,0,.27-1.27Z" class="b"/>
    <path d="M89.25,6a4.14,4.14,0,0,0-1.71.33,3.06,3.06,0,0,0-1.19.94,3.9,3.9,0,0,0-.7,1.43,7.16,7.16,0,0,0,0,3.6,3.92,3.92,0,0,0,.71,1.43,3.2,3.2,0,0,0,1.22,1,4.14,4.14,0,0,0,1.77.34,7,7,0,0,0,1.49-.17,6.74,6.74,0,0,0,1.43-.51l.4,1.3a7.49,7.49,0,0,1-1.56.59,7.78,7.78,0,0,1-1.9.21A6.09,6.09,0,0,1,86.76,16,4.61,4.61,0,0,1,85,14.71a5.37,5.37,0,0,1-1-1.9,8,8,0,0,1-.33-2.34A8.09,8.09,0,0,1,84,8.12a5.28,5.28,0,0,1,1-1.88A4.76,4.76,0,0,1,86.79,5a6.21,6.21,0,0,1,2.46-.45,7.69,7.69,0,0,1,1.8.2,7.91,7.91,0,0,1,1.51.53l-.41,1.33a7.82,7.82,0,0,0-1.34-.46A6.42,6.42,0,0,0,89.25,6Z" class="b"/>
    <path d="M97.2,16.2H95.43V.24H97.2Zm8,0h-2.09l-2.44-3-.89-1.11-.79-1-.78-.94V9.47l4.59-4.71h2.13l-4.93,5Z" class="b"/>
    <path d="M118.41,11.82h-6.87l-1.6,4.38h-1.87l6-16h1.82l6,16H120Zm-6.24-1.61h5.64L116,5.47l-.51-1.6c-.17-.53-.34-1.06-.52-1.6h0c-.18.54-.35,1.07-.52,1.6l-.51,1.6Z" class="c"/>
    <path d="M126,16.2h-1.77V4.76h1.46L126,6.61a4,4,0,0,1,.56-.71,4.85,4.85,0,0,1,.81-.66,3.65,3.65,0,0,1,1-.5,3.87,3.87,0,0,1,1.26-.19,2.9,2.9,0,0,1,1.93.61,3.19,3.19,0,0,1,1,1.69,5.26,5.26,0,0,1,1.58-1.61,3.88,3.88,0,0,1,2.25-.69,2.81,2.81,0,0,1,2.48,1.13,5.13,5.13,0,0,1,.79,3V16.2H138V8.67a3.65,3.65,0,0,0-.42-1.87,1.55,1.55,0,0,0-1.47-.71,2.58,2.58,0,0,0-1,.19,3.74,3.74,0,0,0-.87.49,4.69,4.69,0,0,0-.75.73,4.39,4.39,0,0,0-.59.86V16.2h-1.75V8.67a3.55,3.55,0,0,0-.43-1.87,1.53,1.53,0,0,0-1.43-.71,3.22,3.22,0,0,0-1.93.62A4.69,4.69,0,0,0,126,8.2Z" class="c"/>
    <path d="M144.3,11.27A4.17,4.17,0,0,0,145.44,14a3.92,3.92,0,0,0,2.86,1,8,8,0,0,0,1.6-.16,5.57,5.57,0,0,0,1.46-.5l.43,1.3a6.36,6.36,0,0,1-1.64.58,8.71,8.71,0,0,1-2,.2A6.56,6.56,0,0,1,145.7,16a4.64,4.64,0,0,1-1.72-1.2,5.05,5.05,0,0,1-1-1.87,8.14,8.14,0,0,1-.35-2.45,8.45,8.45,0,0,1,.32-2.35,5.28,5.28,0,0,1,.94-1.88A4.32,4.32,0,0,1,145.49,5a5.68,5.68,0,0,1,2.36-.45,4.33,4.33,0,0,1,3.39,1.27,4.94,4.94,0,0,1,1.15,3.47,7.17,7.17,0,0,1-.07,1.06,7.45,7.45,0,0,1-.19.92Zm3.55-5.37a3.53,3.53,0,0,0-1.56.31,3,3,0,0,0-1.08.85,3.72,3.72,0,0,0-.64,1.29A7.41,7.41,0,0,0,144.3,10h6.42a1.62,1.62,0,0,0,0-.33V9.29a4.09,4.09,0,0,0-.67-2.52A2.64,2.64,0,0,0,147.85,5.9Z" class="c"/>
    <path d="M157.08,6.8a9.22,9.22,0,0,1,.56-.82,5,5,0,0,1,.73-.73,3.84,3.84,0,0,1,.9-.52,2.82,2.82,0,0,1,1.11-.21,2.64,2.64,0,0,1,1.1.18,3.53,3.53,0,0,1,.46.23l-.5,1.73a2,2,0,0,0-1.34-.43,3,3,0,0,0-1.76.54,4,4,0,0,0-1.26,1.54V16.2h-1.77V4.76h1.41Z" class="c"/>
    <path d="M163.9,1.21a1.27,1.27,0,0,1,.31-.85,1.14,1.14,0,0,1,.91-.36,1.12,1.12,0,0,1,.92.36,1.26,1.26,0,0,1,.3.85,1.24,1.24,0,0,1-.3.84,1.14,1.14,0,0,1-.92.34,1.16,1.16,0,0,1-.91-.34A1.24,1.24,0,0,1,163.9,1.21Zm2.11,15h-1.77V4.76H166Z" class="c"/>
    <path d="M174.55,6a4.14,4.14,0,0,0-1.71.33,3,3,0,0,0-1.2.94A4.05,4.05,0,0,0,171,8.67a7.16,7.16,0,0,0,0,3.6,3.9,3.9,0,0,0,.7,1.43,3.24,3.24,0,0,0,1.23,1,4.14,4.14,0,0,0,1.77.34,7,7,0,0,0,1.49-.17,6.65,6.65,0,0,0,1.42-.51l.41,1.3a7.58,7.58,0,0,1-1.57.59,7.72,7.72,0,0,1-1.9.21,6.07,6.07,0,0,1-2.44-.45,4.61,4.61,0,0,1-1.72-1.25,5.22,5.22,0,0,1-1-1.9,8,8,0,0,1-.34-2.34,8.09,8.09,0,0,1,.34-2.35,5.13,5.13,0,0,1,1-1.88A4.72,4.72,0,0,1,172.08,5a6.29,6.29,0,0,1,2.47-.45,7.66,7.66,0,0,1,1.79.2,7.46,7.46,0,0,1,1.51.53l-.4,1.33a8.13,8.13,0,0,0-1.34-.46A6.42,6.42,0,0,0,174.55,6Z" class="c"/>
    <path d="M187.28,8.67a2.59,2.59,0,0,0-.74-2.07,3,3,0,0,0-2-.63,7.25,7.25,0,0,0-2,.25,9.19,9.19,0,0,0-1.63.6l-.41-1.25a7.43,7.43,0,0,1,1.71-.7,7.93,7.93,0,0,1,2.36-.32,4.44,4.44,0,0,1,3.32,1.11,4.16,4.16,0,0,1,1.08,3V16.2h-1.34l-.36-2a6.29,6.29,0,0,1-.61.85,3.69,3.69,0,0,1-.81.71,3.89,3.89,0,0,1-1.09.49,5.45,5.45,0,0,1-1.49.17,4.16,4.16,0,0,1-1.38-.22,3.56,3.56,0,0,1-1.14-.65,3,3,0,0,1-.77-1.07,3.71,3.71,0,0,1-.27-1.47,3.3,3.3,0,0,1,1.34-2.87,6.31,6.31,0,0,1,3.73-1h2.49Zm0,1.82h-2.51a4,4,0,0,0-2.49.65,2.23,2.23,0,0,0-.84,1.86,1.88,1.88,0,0,0,.61,1.52,2.24,2.24,0,0,0,1.52.52,3.56,3.56,0,0,0,1.52-.31,3.65,3.65,0,0,0,1.17-.81,3.73,3.73,0,0,0,.76-1.14,3.35,3.35,0,0,0,.26-1.27Z" class="c"/>
    <path d="M194.34,16.2h-1.77V4.76H194l.34,1.85a5.89,5.89,0,0,1,.66-.7,4.6,4.6,0,0,1,.92-.66,5.8,5.8,0,0,1,1.16-.5,4.63,4.63,0,0,1,1.37-.2,3.65,3.65,0,0,1,2.89,1.18,4.84,4.84,0,0,1,1,3.29V16.2h-1.75V9A3.19,3.19,0,0,0,200,6.89a2.22,2.22,0,0,0-1.8-.78,4.22,4.22,0,0,0-2.22.6,5.37,5.37,0,0,0-1.61,1.49Z" class="c"/>
    <path d="M207.11.24h9.74V1.87h-7.92V7.13h7.44V8.79h-7.44v5.78H217V16.2h-9.89Z" class="b"/>
    <path d="M226.52,8.67a2.59,2.59,0,0,0-.74-2.07,3,3,0,0,0-2-.63,7.25,7.25,0,0,0-2,.25,9.3,9.3,0,0,0-1.64.6l-.4-1.25a7.43,7.43,0,0,1,1.71-.7,7.9,7.9,0,0,1,2.35-.32,4.46,4.46,0,0,1,3.33,1.11,4.16,4.16,0,0,1,1.08,3V16.2h-1.34l-.36-2a6.29,6.29,0,0,1-.61.85,3.53,3.53,0,0,1-.82.71,3.82,3.82,0,0,1-1.08.49,5.45,5.45,0,0,1-1.49.17,4.26,4.26,0,0,1-1.39-.22,3.51,3.51,0,0,1-1.13-.65,3,3,0,0,1-.77-1.07A3.71,3.71,0,0,1,219,13a3.28,3.28,0,0,1,1.34-2.87,6.29,6.29,0,0,1,3.73-1h2.49Zm0,1.82H224a4,4,0,0,0-2.49.65,2.23,2.23,0,0,0-.84,1.86,1.88,1.88,0,0,0,.61,1.52,2.24,2.24,0,0,0,1.52.52,3.56,3.56,0,0,0,1.52-.31,3.89,3.89,0,0,0,1.17-.81,3.73,3.73,0,0,0,.76-1.14,3.35,3.35,0,0,0,.26-1.27Z" class="b"/>
    <path d="M239.66,14a4.19,4.19,0,0,1-1.48,1.58,4.09,4.09,0,0,1-2.28.65,4.94,4.94,0,0,1-1.94-.38,4.07,4.07,0,0,1-1.52-1.11,5.29,5.29,0,0,1-1-1.84,8.07,8.07,0,0,1-.36-2.52,7.75,7.75,0,0,1,.33-2.3,5.53,5.53,0,0,1,1-1.86A4.59,4.59,0,0,1,234,5,4.69,4.69,0,0,1,236,4.55a3.9,3.9,0,0,1,1.25.2,4.14,4.14,0,0,1,1,.5,4.26,4.26,0,0,1,.79.66,6.29,6.29,0,0,1,.57.7L240,4.76h1.46V15.35a7.33,7.33,0,0,1-.39,2.54A4.43,4.43,0,0,1,240,19.62a4.29,4.29,0,0,1-1.67,1,6.87,6.87,0,0,1-2.14.32,8.75,8.75,0,0,1-2.37-.32A7.6,7.6,0,0,1,232,19.9l.43-1.43a6.86,6.86,0,0,0,1.6.66,7.58,7.58,0,0,0,1.94.25,5.93,5.93,0,0,0,1.5-.18,2.6,2.6,0,0,0,1.16-.64,3.07,3.07,0,0,0,.75-1.25,6.12,6.12,0,0,0,.28-2Zm0-5.78a4.82,4.82,0,0,0-1.45-1.5,3.37,3.37,0,0,0-4.39.45,4.49,4.49,0,0,0-1,3.21,6.1,6.1,0,0,0,.28,2,3.64,3.64,0,0,0,.74,1.32,2.94,2.94,0,0,0,1.06.75,3.42,3.42,0,0,0,2.68-.07,3.39,3.39,0,0,0,1.12-.87,3.81,3.81,0,0,0,.71-1.3,5,5,0,0,0,.26-1.62Z" class="b"/>
    <path d="M246.93,16.2h-1.77V.24h1.77Z" class="b"/>
    <path d="M251.64,11.27A4.17,4.17,0,0,0,252.78,14a3.92,3.92,0,0,0,2.86,1,8,8,0,0,0,1.6-.16,5.57,5.57,0,0,0,1.46-.5l.43,1.3a6.42,6.42,0,0,1-1.63.58,8.86,8.86,0,0,1-2,.2A6.6,6.6,0,0,1,253,16a4.64,4.64,0,0,1-1.72-1.2,5.05,5.05,0,0,1-1-1.87,8.15,8.15,0,0,1-.34-2.45,8.45,8.45,0,0,1,.31-2.35,5.28,5.28,0,0,1,.94-1.88A4.32,4.32,0,0,1,252.83,5a5.68,5.68,0,0,1,2.36-.45,4.31,4.31,0,0,1,3.39,1.27,4.94,4.94,0,0,1,1.15,3.47,7.17,7.17,0,0,1-.07,1.06,7.45,7.45,0,0,1-.19.92Zm3.55-5.37a3.53,3.53,0,0,0-1.56.31,3,3,0,0,0-1.08.85,3.72,3.72,0,0,0-.64,1.29,7.41,7.41,0,0,0-.27,1.62h6.42a1.62,1.62,0,0,0,0-.33V9.29a4.09,4.09,0,0,0-.67-2.52A2.64,2.64,0,0,0,255.19,5.9Z" class="b"/>
    <path d="M185.68,23.09H196L200.6,56h.14l4.6-32.94h10.33v46h-6.84V34.27h-.14l-5.26,34.85h-6.05l-5.26-34.85H192V69.12h-6.31Z" class="b"/>
    <path d="M218.31,58.47V33.74c0-7.1,3.68-11.31,10.65-11.31s10.66,4.21,10.66,11.31v4.87h-6.84V33.28c0-3-1.45-4.28-3.62-4.28s-3.62,1.25-3.62,4.28V59c0,3,1.45,4.21,3.62,4.21S232.78,62,232.78,59V52h6.84v6.51c0,7.1-3.69,11.31-10.66,11.31S218.31,65.57,218.31,58.47Z" class="a"/>
    <path d="M241.27,58.2V34c0-7.36,3.88-11.57,11-11.57s11,4.21,11,11.57V58.2c0,7.37-3.88,11.58-11,11.58S241.27,65.57,241.27,58.2Zm14.73.46V33.54c0-3.29-1.44-4.54-3.75-4.54s-3.74,1.25-3.74,4.54V58.66c0,3.29,1.44,4.54,3.74,4.54S256,62,256,58.66Z" class="a"/>
</svg>
